<?xml version="1.0" encoding="UTF-8"?>
<svg id="Ebene_2" data-name="Ebene 2" xmlns="http://www.w3.org/2000/svg" viewBox="0 0 117.75 105.81">
  <defs>
    <style>
      .cls-1 {
        fill: #222;
      }
    </style>
  </defs>
  <g id="Ebene_1-2" data-name="Ebene 1">
    <path class="cls-1" d="M116.29,53.16L62.36,1.39c-1.95-1.85-5.02-1.85-6.97,0L1.44,53.18c-3.09,3.11-.89,8.4,3.5,8.4h7.63c.8,0,1.45.65,1.45,1.45v33.8c0,4.95,4.01,8.97,8.97,8.97h19.57c1.6,0,2.89-1.3,2.89-2.89v-26.5c0-2.19,1.77-3.96,3.96-3.96h18.25c2.19,0,3.96,1.77,3.96,3.96v26.5c0,1.6,1.3,2.89,2.89,2.89h19.57c4.95,0,8.97-4.01,8.97-8.97v-33.8c0-.8.65-1.45,1.45-1.45h8.31c4.4,0,6.59-5.32,3.48-8.42Z"/>
  </g>
</svg>