<?xml version="1.0" encoding="UTF-8"?>
<svg id="Ebene_2" data-name="Ebene 2" xmlns="http://www.w3.org/2000/svg" viewBox="0 0 99.43 104.27">
  <defs>
    <style>
      .cls-1 {
        fill: #222;
      }
    </style>
  </defs>
  <g id="Ebene_1-2" data-name="Ebene 1">
    <g>
      <path class="cls-1" d="M91.74,104.27H7.69c-4.25,0-7.69-3.44-7.69-7.69v-.63c0-15.23,11.71-27.73,26.62-28.98,1.38-.12,2.76-.05,4.13.16,5.08.77,10.88,1.34,17.29,1.43,7.72.1,14.63-.52,20.51-1.41,1.71-.26,3.44-.28,5.16-.07,4.18.52,11.21,2.3,17.21,8.3,5.26,5.26,8.52,12.53,8.52,20.56v.63c0,4.25-3.44,7.69-7.69,7.69Z"/>
      <circle class="cls-1" cx="49.71" cy="29.76" r="29.76"/>
    </g>
  </g>
</svg>